<svg xmlns="http://www.w3.org/2000/svg" version="1.1" xmlns:xlink="http://www.w3.org/1999/xlink" xmlns:svgjs="http://svgjs.dev/svgjs" width="1000" height="1000" viewBox="0 0 1000 1000"><rect width="1000" height="1000" fill="#ffffff"></rect><g transform="matrix(0.7,0,0,0.7,149.5757837899494,417.3068897026154)"><svg viewBox="0 0 396 94" data-background-color="#90adbb" preserveAspectRatio="xMidYMid meet" height="237" width="1000" xmlns="http://www.w3.org/2000/svg" xmlns:xlink="http://www.w3.org/1999/xlink"><defs></defs><g id="tight-bounds" transform="matrix(1,0,0,1,0.2400051658509028,-0.14555534687070804)"><svg viewBox="0 0 395.52 94.29111069374144" height="94.29111069374144" width="395.52"><g><svg viewBox="0 0 665.3054613067407 158.60737989791818" height="94.29111069374144" width="395.52"><g transform="matrix(1,0,0,1,269.78546130674073,0)"><svg viewBox="0 0 395.52 158.60737989791818" height="158.60737989791818" width="395.52"><g><svg viewBox="0 0 395.52 158.60737989791818" height="158.60737989791818" width="395.52"><g><svg viewBox="0 0 395.52 107.3980468439857" height="107.3980468439857" width="395.52"><g transform="matrix(1,0,0,1,0,0)"><svg width="395.52" viewBox="0.550000011920929 -29.450000762939453 125.93999481201172 34.20000076293945" height="107.3980468439857" data-palette-color="#f6f6f6"><path d="M34.85 1.25L34.85 1.25Q33.3 1.25 32.6-0.13 31.9-1.5 31.9-3.63 31.9-5.75 32.8-9.45L32.8-9.45Q31.05-9.6 26.85-10.15L26.85-10.15Q19.9-1.55 15.3 1.8L15.3 1.8Q11.35 4.75 7.1 4.75L7.1 4.75Q4.4 4.75 2.48 3.4 0.55 2.05 0.55-0.6L0.55-0.6Q0.55-1.1 0.8-1.53 1.05-1.95 1.3-1.75 1.55-1.55 1.55-0.6L1.55-0.6Q1.55 1.1 2.88 1.95 4.2 2.8 6.1 2.8L6.1 2.8Q10.2 2.8 14.18 0.13 18.15-2.55 25-10.35L25-10.35Q17.65-11.25 15.3-11.25L15.3-11.25Q8.95-11.25 7.45-7.1L7.45-7.1Q7.25-6.55 7.25-6.08 7.25-5.6 7.45-5.23 7.65-4.85 7.53-4.63 7.4-4.4 7.1-4.42 6.8-4.45 6.6-4.75L6.6-4.75Q6.05-5.7 6.05-6.6L6.05-6.6Q6.05-9.7 7.18-11.18 8.3-12.65 9.8-13.05L9.8-13.05Q11.6-13.55 14-13.55 16.4-13.55 26.1-11.65L26.1-11.65Q28.8-14.75 34.3-21.63 39.8-28.5 39.8-28.6L39.8-28.6 39.85-28.6Q39.9-28.65 40.1-28.75L40.1-28.75Q41.3-29.45 42.7-29.45L42.7-29.45Q43.2-29.45 43.2-28.95L43.2-28.95Q43.2-28.9 43.15-28.83 43.1-28.75 43.05-28.63 43-28.5 42.95-28.4L42.95-28.4Q38.15-20.45 35.5-10.5L35.5-10.5 35.35-10.15 36.6-10.1Q37-10.05 38.02-10.05 39.05-10.05 40.2-10.53 41.35-11 41.68-11.55 42-12.1 42.25-11.8 42.5-11.5 42.3-11.15L42.3-11.15Q41.75-10.15 40.35-9.7L40.35-9.7Q39.15-9.2 37.98-9.2 36.8-9.2 36.45-9.2L36.45-9.2 35.1-9.25Q34.15-4.9 34.15-2.33 34.15 0.25 35.55 0.25L35.55 0.25Q36.9 0.25 39.75-1.9 42.6-4.05 45.1-7.45L45.1-7.45Q45.25-7.65 45.5-7.55 45.75-7.45 45.75-7.3 45.75-7.15 45.68-6.93 45.6-6.7 44.9-5.8L44.9-5.8Q42.8-3 39.75-0.5L39.75-0.5Q37.55 1.25 34.85 1.25ZM37.6-23.9L37.6-23.9Q37.65-24 37.73-24.18 37.8-24.35 37.85-24.45L37.85-24.45Q31.6-15.9 27.8-11.25L27.8-11.25 33.05-10.4Q34.45-15.85 37.6-23.9ZM49.25-13.85L49.25-13.85Q50.5-13.85 50.75-13.05L50.75-13.05Q50.85-12.6 50.62-12.18 50.4-11.75 50.3-11.5 50.2-11.25 50.15-11.1L50.15-11.1Q49.9-10.6 49.65-10.15L49.65-10.15Q46.8-4.45 46.65-2.9L46.65-2.9Q46.6-2.45 46.6-1.75 46.6-1.05 47-0.6L47-0.6Q47.7 0.2 49-0.5 50.3-1.2 52.62-3.3 54.95-5.4 56.4-7.4L56.4-7.4Q56.6-7.65 56.85-7.53 57.1-7.4 57.1-7.28 57.1-7.15 57-7L57-7Q56.25-5.65 54.3-3.55L54.3-3.55Q51.1-0.1 48.95 0.7L48.95 0.7Q47.7 1.15 46.85 1.15L46.85 1.15Q44.85 1.15 44.2-0.75L44.2-0.75Q44.1-1.1 44.1-1.6L44.1-1.6Q44.1-3.35 45.7-6.9L45.7-6.9Q45.45-6.35 43.75-4.4L43.75-4.4Q43.3-3.9 43.05-4.4L43.05-4.4Q43-4.5 43-4.67 43-4.85 43.2-5.1L43.2-5.1Q45.65-8.15 47.05-10.25L47.05-10.25Q46.95-10.5 47.15-10.9L47.15-10.9Q48.15-13.7 48.9-13.85L48.9-13.85Q49.05-13.85 49.25-13.85ZM53.2-20.5L53.2-20.5 52.8-18.9Q52.8-18.45 52.15-17.45 51.5-16.45 51.15-16.45L51.15-16.45Q49-16.45 49-17.5L49-17.5Q49-17.7 51.15-19.35L51.15-19.35 52-20Q52.8-20.7 53-20.7 53.2-20.7 53.2-20.5ZM62.35 1.25L62.35 1.25Q59.8 1.25 59.8-1.83 59.8-4.9 64.2-9.4L64.2-9.4Q64.55-9.75 64.7-9.95L64.7-9.95 65.05-10.45Q65.75-11.4 65.7-11.65L65.7-11.65 65.55-12.1Q65.34-12.7 63.9-12.98 62.45-13.25 61.55-13.25L61.55-13.25Q57.05-6.9 56.35-6 55.65-5.1 55.4-5.25 55.15-5.4 55.15-5.6 55.15-5.8 55.45-6.2L55.45-6.2Q58.15-9.5 60.1-13.25L60.1-13.25Q59.5-13.35 59.2-13.68 58.9-14 59.15-14.78 59.4-15.55 60.67-16.85 61.95-18.15 62.9-18.6 63.85-19.05 64.09-19.15 64.34-19.25 64.65-19.25L64.65-19.25Q65.25-19.25 64.25-17.45L64.25-17.45 62.3-14.35Q64.55-14.2 66.15-14.2L66.15-14.2 67.9-14.25Q68.75-14.25 69.15-14.03 69.55-13.8 69.34-13.25L69.34-13.25Q69-12.3 67.59-10.7L67.59-10.7Q64.59-7.2 63.1-3.25L63.1-3.25Q62.75-2.3 62.75-1.6L62.75-1.6Q62.75-0.15 63.8-0.15L63.8-0.15Q64.15-0.15 65.12-0.7 66.09-1.25 68.4-3.33 70.7-5.4 72.09-7.4L72.09-7.4Q72.3-7.65 72.57-7.53 72.84-7.4 72.84-7.28 72.84-7.15 72.75-7L72.75-7Q72-5.65 70.05-3.55 68.09-1.45 66.25-0.15L66.25-0.15Q64.45 1.25 62.35 1.25ZM85.49-13.5L85.49-13.5Q86.39-13.5 87.64-12.58 88.89-11.65 89.04-10.75L89.04-10.75Q89.09-10.4 89.09-10.1L89.09-10.1Q89.09-7.85 86.89-5.28 84.69-2.7 81.94-0.9L81.94-0.9Q77.69 2 73.49 2L73.49 2Q71.79 2 70.79 1.55L70.79 1.55Q69.99 1.15 72.79 1.15L72.79 1.15Q75.84 1.15 80.69-2.45L80.69-2.45Q85.39-5.75 86.39-10.35L86.39-10.35Q86.54-11.05 86.37-11.78 86.19-12.5 85.49-12.5L85.49-12.5Q83.24-12.5 79.59-9.35L79.59-9.35Q78.04-8.05 76.42-5.85 74.79-3.65 74.79-2.25L74.79-2.25Q74.79-2.05 74.87-1.83 74.94-1.6 74.69-1.1L74.69-1.1Q74.04 0.2 72.84-1.25L72.84-1.25Q72.54-2 72.54-2.8L72.54-2.8Q72.54-5.1 73.24-7.65L73.24-7.65Q73.04-7.45 72.37-6.43 71.69-5.4 70.79-4.4L70.79-4.4Q70.34-3.9 70.09-4.4L70.09-4.4Q70.04-4.5 70.04-4.67 70.04-4.85 70.24-5.1L70.24-5.1Q74.14-9.95 74.79-11.4L74.79-11.4Q75.69-13.9 77.54-17.93 79.39-21.95 80.94-24.35L80.94-24.35Q84.14-29.4 87.54-29.4L87.54-29.4Q88.14-29.4 88.79-29.25L88.79-29.25 89.79-28.9Q91.24-28.05 91.24-26.73 91.24-25.4 90.44-23.85L90.44-23.85Q89.14-21.2 84.84-17.18 80.54-13.15 76.49-10.35L76.49-10.35Q75.49-8.55 74.94-5.65L74.94-5.65Q76.79-8.4 79.77-10.95 82.74-13.5 85.49-13.5ZM83.89-18L83.89-18Q89.84-24 89.84-26.9L89.84-26.9Q89.84-28.1 88.94-28.1L88.94-28.1Q88.24-28.1 87.04-27.2L87.04-27.2Q81.89-23.25 77.04-12.35L77.04-12.35Q80.44-14.6 83.89-18ZM97.59 1.25L97.59 1.25Q95.04 1.25 95.04-1.83 95.04-4.9 99.44-9.4L99.44-9.4Q99.79-9.75 99.94-9.95L99.94-9.95 100.29-10.45Q100.99-11.4 100.94-11.65L100.94-11.65 100.79-12.1Q100.59-12.7 99.14-12.98 97.69-13.25 96.79-13.25L96.79-13.25Q92.29-6.9 91.59-6 90.89-5.1 90.64-5.25 90.39-5.4 90.39-5.6 90.39-5.8 90.69-6.2L90.69-6.2Q93.39-9.5 95.34-13.25L95.34-13.25Q94.74-13.35 94.44-13.68 94.14-14 94.39-14.78 94.64-15.55 95.92-16.85 97.19-18.15 98.14-18.6 99.09-19.05 99.34-19.15 99.59-19.25 99.89-19.25L99.89-19.25Q100.49-19.25 99.49-17.45L99.49-17.45 97.54-14.35Q99.79-14.2 101.39-14.2L101.39-14.2 103.14-14.25Q103.99-14.25 104.39-14.03 104.79-13.8 104.59-13.25L104.59-13.25Q104.24-12.3 102.84-10.7L102.84-10.7Q99.84-7.2 98.34-3.25L98.34-3.25Q97.99-2.3 97.99-1.6L97.99-1.6Q97.99-0.15 99.04-0.15L99.04-0.15Q99.39-0.15 100.37-0.7 101.34-1.25 103.64-3.33 105.94-5.4 107.34-7.4L107.34-7.4Q107.54-7.65 107.82-7.53 108.09-7.4 108.09-7.28 108.09-7.15 107.99-7L107.99-7Q107.24-5.65 105.29-3.55 103.34-1.45 101.49-0.15L101.49-0.15Q99.69 1.25 97.59 1.25ZM120.74-13.5L120.74-13.5Q121.64-13.5 122.89-12.58 124.14-11.65 124.29-10.75L124.29-10.75Q124.34-10.4 124.34-10.1L124.34-10.1Q124.34-7.85 122.14-5.28 119.94-2.7 117.19-0.9L117.19-0.9Q112.94 2 108.74 2L108.74 2Q107.04 2 106.04 1.55L106.04 1.55Q105.24 1.15 108.04 1.15L108.04 1.15Q111.09 1.15 115.94-2.45L115.94-2.45Q120.64-5.75 121.64-10.35L121.64-10.35Q121.79-11.05 121.61-11.78 121.44-12.5 120.74-12.5L120.74-12.5Q118.49-12.5 114.84-9.35L114.84-9.35Q113.29-8.05 111.66-5.85 110.04-3.65 110.04-2.25L110.04-2.25Q110.04-2.05 110.11-1.83 110.19-1.6 109.94-1.1L109.94-1.1Q109.29 0.2 108.09-1.25L108.09-1.25Q107.79-2 107.79-2.8L107.79-2.8Q107.79-5.1 108.49-7.65L108.49-7.65Q108.29-7.45 107.61-6.43 106.94-5.4 106.04-4.4L106.04-4.4Q105.59-3.9 105.34-4.4L105.34-4.4Q105.29-4.5 105.29-4.67 105.29-4.85 105.49-5.1L105.49-5.1Q109.39-9.95 110.04-11.4L110.04-11.4Q110.94-13.9 112.79-17.93 114.64-21.95 116.19-24.35L116.19-24.35Q119.39-29.4 122.79-29.4L122.79-29.4Q123.39-29.4 124.04-29.25L124.04-29.25 125.04-28.9Q126.49-28.05 126.49-26.73 126.49-25.4 125.69-23.85L125.69-23.85Q124.39-21.2 120.09-17.18 115.79-13.15 111.74-10.35L111.74-10.35Q110.74-8.55 110.19-5.65L110.19-5.65Q112.04-8.4 115.01-10.95 117.99-13.5 120.74-13.5ZM119.14-18L119.14-18Q125.09-24 125.09-26.9L125.09-26.9Q125.09-28.1 124.19-28.1L124.19-28.1Q123.49-28.1 122.29-27.2L122.29-27.2Q117.14-23.25 112.29-12.35L112.29-12.35Q115.69-14.6 119.14-18Z" opacity="1" transform="matrix(1,0,0,1,0,0)" fill="#000000" class="undefined-text-0" data-fill-palette-color="primary" id="text-0"></path></svg></g></svg></g><g transform="matrix(1,0,0,1,0,132.75214815072647)"><svg viewBox="0 0 232.20979200000002 25.855231747191706" height="25.855231747191706" width="232.20979200000002"><g transform="matrix(1,0,0,1,0,0)"><svg width="232.20979200000002" viewBox="3.450000047683716 -34.599998474121094 405.0199890136719 45.099998474121094" height="25.855231747191706" data-palette-color="#f6f6f6"><path d="M14.95-20.3L23.55-20.3Q26.2-20.3 27.28-19.45 28.35-18.6 28.35-16.55L28.35-16.55Q28.35-14.85 27.08-14.13 25.8-13.4 23.1-13.4L23.1-13.4 15-13.4 15-8.1 25.85-8.05Q28.65-8.05 29.88-7.23 31.1-6.4 31.1-4.3L31.1-4.3Q31.1-1.9 29.68-0.95 28.25 0 25.35 0L25.35 0 9.15 0Q6.2 0 4.83-1.58 3.45-3.15 3.45-7.15L3.45-7.15 3.45-28.25Q3.45-34.25 9.15-34.25L9.15-34.25 25.35-34.25Q28.25-34.25 29.68-33.35 31.1-32.45 31.1-30.1L31.1-30.1Q31.1-27.9 29.88-27.03 28.65-26.15 25.85-26.15L25.85-26.15 14.95-26.15 14.95-20.3ZM51.3-4.15L51.25-13.45Q51.25-16.25 49.05-16.25L49.05-16.25Q48-16.25 47.32-15.38 46.65-14.5 46.55-13.05L46.55-13.05 46.55-5.35Q46.55-2.3 45.3-1.15 44.05 0 40.9 0L40.9 0Q37.95 0 36.87-1.38 35.8-2.75 35.8-5.9L35.8-5.9 35.8-18.2Q35.8-20.75 37.17-22.3 38.55-23.85 40.85-23.85L40.85-23.85Q42.75-23.85 44.05-23.3 45.35-22.75 46-21.4L46-21.4Q49.9-23.95 55.5-23.95L55.5-23.95Q59.05-23.95 60.62-21.15 62.2-18.35 62.2-11.95L62.2-11.95Q62.2-8.8 62.05-6.83 61.9-4.85 61.57-3.43 61.25-2 60.55-1.3 59.85-0.6 58.92-0.3 58 0 56.55 0L56.55 0Q53.75 0 52.52-1.05 51.3-2.1 51.3-4.15L51.3-4.15ZM77.8-18.6L77.8-18.6 77.8-2.35Q77.8 3.25 75.65 6.73 73.5 10.2 68.8 10.2L68.8 10.2Q63.5 10.2 60.22 8.6 56.95 7 56.95 5.2L56.95 5.2Q56.95 3.85 57.97 3.28 59 2.7 61.55 2.7L61.55 2.7Q62.95 2.7 63.75 2.58 64.55 2.45 65.37 1.98 66.2 1.5 66.57 0.43 66.95-0.65 66.95-2.4L66.95-2.4 66.95-17.85Q66.95-20.95 68.47-22.4 70-23.85 72.5-23.85L72.5-23.85Q74.8-23.85 76.3-22.33 77.8-20.8 77.8-18.6ZM66.8-30.8L66.8-30.8Q66.8-32.45 68.22-33.52 69.65-34.6 72.25-34.6L72.25-34.6Q77.7-34.6 77.7-30.8L77.7-30.8Q77.7-28.7 76.32-27.85 74.95-27 72.25-27L72.25-27Q69.9-27 68.35-27.9 66.8-28.8 66.8-30.8ZM98.84-11.85L98.84-11.85Q98.84-14.45 98.19-16.43 97.54-18.4 96.29-18.4L96.29-18.4Q95.44-18.4 94.79-17.4 94.14-16.4 93.84-14.95 93.54-13.5 93.54-11.85L93.54-11.85Q93.54-9.3 94.24-7.38 94.94-5.45 96.24-5.45 97.54-5.45 98.19-7.35 98.84-9.25 98.84-11.85ZM96.24 0.35L96.24 0.35Q92.34 0.35 89.22-1.05 86.09-2.45 84.22-5.25 82.34-8.05 82.34-11.8L82.34-11.8Q82.34-17.5 86.24-20.85 90.14-24.2 96.24-24.2 102.34-24.2 106.19-20.85 110.04-17.5 110.04-11.8L110.04-11.8Q110.04-6.15 106.12-2.9 102.19 0.35 96.24 0.35ZM140.14-14.1L140.14-14.1Q140.14-5.55 139.64-2.15L139.64-2.15Q139.24 0.9 138.39 3.13 137.54 5.35 135.99 7.08 134.44 8.8 132.04 9.65 129.64 10.5 126.34 10.5L126.34 10.5Q123.69 10.5 121.42 9.73 119.14 8.95 117.82 7.83 116.49 6.7 115.74 5.6 114.99 4.5 114.99 3.7 114.99 2.9 115.52 2.23 116.04 1.55 116.94 1.55L116.94 1.55Q117.59 1.55 118.47 1.95 119.34 2.35 120.14 2.85 120.94 3.35 122.04 3.75 123.14 4.15 124.19 4.15L124.19 4.15Q126.89 4.15 128.02 2.8 129.14 1.45 129.14-1.05L129.14-1.05Q128.29-0.7 127.49-0.45 126.69-0.2 125.94-0.05 125.19 0.1 124.52 0.15 123.84 0.2 123.19 0.2L123.19 0.2Q120.24 0.2 118.14-1.45 116.04-3.1 115.12-5.53 114.19-7.95 114.19-10.75L114.19-10.75Q114.19-13.55 114.27-15.5 114.34-17.45 114.59-18.98 114.84-20.5 115.17-21.4 115.49-22.3 116.09-22.88 116.69-23.45 117.44-23.65 118.19-23.85 119.24-23.85L119.24-23.85Q122.39-23.85 123.67-22.78 124.94-21.7 124.94-19.4L124.94-19.4 124.99-11.35Q124.99-10.55 124.99-10.18 124.99-9.8 125.07-9.25 125.14-8.7 125.27-8.45 125.39-8.2 125.62-7.93 125.84-7.65 126.22-7.55 126.59-7.45 127.14-7.45L127.14-7.45Q128.64-7.45 129.02-8.28 129.39-9.1 129.39-11.3L129.39-11.3 129.44-19.4Q129.44-20.95 129.97-21.9 130.49-22.85 131.74-23.35 132.99-23.85 135.14-23.85L135.14-23.85Q136.44-23.85 137.37-23.43 138.29-23 138.84-22.33 139.39-21.65 139.67-20.33 139.94-19 140.04-17.65 140.14-16.3 140.14-14.1ZM173.69-26.1L173.69-26.1Q171.54-26.1 170.51-24.85 169.49-23.6 169.49-20.4L169.49-20.4 169.49-14.5 177.79-14.5 177.79-20.5Q177.79-22.6 177.29-23.88 176.79-25.15 175.91-25.63 175.04-26.1 173.69-26.1ZM177.79-4.95L177.79-7.6 169.49-7.6 169.49-4.95Q169.49-2.4 168.14-1.2 166.79 0 163.49 0L163.49 0Q162.09 0 161.19-0.4 160.29-0.8 159.61-1.75 158.94-2.7 158.61-4.53 158.29-6.35 158.11-8.93 157.94-11.5 157.94-15.45L157.94-15.45Q157.94-18.9 158.66-21.78 159.39-24.65 160.61-26.65 161.84-28.65 163.39-30.18 164.94-31.7 166.76-32.55 168.59-33.4 170.31-33.83 172.04-34.25 173.79-34.25L173.79-34.25Q175.89-34.25 177.94-33.68 179.99-33.1 182.09-31.7 184.19-30.3 185.76-28.23 187.34-26.15 188.34-22.85 189.34-19.55 189.34-15.45L189.34-15.45Q189.34-8.85 188.86-5.68 188.39-2.5 187.26-1.25 186.14 0 183.79 0L183.79 0Q180.49 0 179.14-1.2 177.79-2.4 177.79-4.95L177.79-4.95ZM209.08-4.15L209.03-13.45Q209.03-16.25 206.83-16.25L206.83-16.25Q205.78-16.25 205.11-15.38 204.43-14.5 204.33-13.05L204.33-13.05 204.33-5.35Q204.33-2.3 203.08-1.15 201.83 0 198.68 0L198.68 0Q195.73 0 194.66-1.38 193.58-2.75 193.58-5.9L193.58-5.9 193.58-18.2Q193.58-20.75 194.96-22.3 196.33-23.85 198.63-23.85L198.63-23.85Q200.53-23.85 201.83-23.3 203.13-22.75 203.78-21.4L203.78-21.4Q207.68-23.95 213.28-23.95L213.28-23.95Q216.83-23.95 218.41-21.15 219.98-18.35 219.98-11.95L219.98-11.95Q219.98-8.8 219.83-6.83 219.68-4.85 219.36-3.43 219.03-2 218.33-1.3 217.63-0.6 216.71-0.3 215.78 0 214.33 0L214.33 0Q211.53 0 210.31-1.05 209.08-2.1 209.08-4.15L209.08-4.15ZM250.38-14.1L250.38-14.1Q250.38-5.55 249.88-2.15L249.88-2.15Q249.48 0.9 248.63 3.13 247.78 5.35 246.23 7.08 244.68 8.8 242.28 9.65 239.88 10.5 236.58 10.5L236.58 10.5Q233.93 10.5 231.66 9.73 229.38 8.95 228.06 7.83 226.73 6.7 225.98 5.6 225.23 4.5 225.23 3.7 225.23 2.9 225.76 2.23 226.28 1.55 227.18 1.55L227.18 1.55Q227.83 1.55 228.71 1.95 229.58 2.35 230.38 2.85 231.18 3.35 232.28 3.75 233.38 4.15 234.43 4.15L234.43 4.15Q237.13 4.15 238.26 2.8 239.38 1.45 239.38-1.05L239.38-1.05Q238.53-0.7 237.73-0.45 236.93-0.2 236.18-0.05 235.43 0.1 234.76 0.15 234.08 0.2 233.43 0.2L233.43 0.2Q230.48 0.2 228.38-1.45 226.28-3.1 225.36-5.53 224.43-7.95 224.43-10.75L224.43-10.75Q224.43-13.55 224.51-15.5 224.58-17.45 224.83-18.98 225.08-20.5 225.41-21.4 225.73-22.3 226.33-22.88 226.93-23.45 227.68-23.65 228.43-23.85 229.48-23.85L229.48-23.85Q232.63-23.85 233.91-22.78 235.18-21.7 235.18-19.4L235.18-19.4 235.23-11.35Q235.23-10.55 235.23-10.18 235.23-9.8 235.31-9.25 235.38-8.7 235.51-8.45 235.63-8.2 235.86-7.93 236.08-7.65 236.46-7.55 236.83-7.45 237.38-7.45L237.38-7.45Q238.88-7.45 239.26-8.28 239.63-9.1 239.63-11.3L239.63-11.3 239.68-19.4Q239.68-20.95 240.21-21.9 240.73-22.85 241.98-23.35 243.23-23.85 245.38-23.85L245.38-23.85Q246.68-23.85 247.61-23.43 248.53-23 249.08-22.33 249.63-21.65 249.91-20.33 250.18-19 250.28-17.65 250.38-16.3 250.38-14.1ZM282.03-7.5L282.03-7.5Q283.33-7.5 283.65-8.13 283.98-8.75 283.98-10.45L283.98-10.45 284.03-19.4Q284.03-21.7 285.33-22.78 286.63-23.85 289.73-23.85L289.73-23.85Q291.08-23.85 291.93-23.55 292.78-23.25 293.4-22.58 294.03-21.9 294.35-20.53 294.68-19.15 294.83-17.23 294.98-15.3 294.98-12.3L294.98-12.3Q294.98-9.65 294.15-7.48 293.33-5.3 292.05-3.95 290.78-2.6 289.08-1.68 287.38-0.75 285.68-0.38 283.98 0 282.28 0L282.28 0Q278.23 0 274.83-2.55L274.83-2.55Q271.48 0 267.43 0L267.43 0Q265.73 0 264.05-0.38 262.38-0.75 260.65-1.68 258.93-2.6 257.63-3.95 256.33-5.3 255.5-7.48 254.68-9.65 254.68-12.3L254.68-12.3Q254.68-17.25 255.13-19.63 255.58-22 256.63-22.93 257.68-23.85 259.93-23.85L259.93-23.85Q262.03-23.85 263.28-23.35 264.53-22.85 265.05-21.9 265.58-20.95 265.58-19.4L265.58-19.4 265.63-10.5Q265.63-9.75 265.65-9.43 265.68-9.1 265.78-8.63 265.88-8.15 266.08-7.98 266.28-7.8 266.63-7.65 266.98-7.5 267.53-7.5L267.53-7.5Q269.53-7.5 269.88-8.65L269.88-8.65Q269.43-11.65 269.43-15.1L269.43-15.1Q269.43-18 269.63-19.63 269.83-21.25 270.5-22.25 271.18-23.25 272.18-23.55 273.18-23.85 275.03-23.85L275.03-23.85Q276.68-23.85 277.63-23.55 278.58-23.25 279.18-22.25 279.78-21.25 279.98-19.63 280.18-18 280.18-15.1L280.18-15.1Q280.18-11.6 279.78-8.6L279.78-8.6Q280.13-7.5 282.03-7.5ZM315.03-4.15L314.98-13.4Q314.98-16.25 312.78-16.25L312.78-16.25Q312.38-16.25 312.05-16.15 311.73-16.05 311.45-15.9 311.18-15.75 310.95-15.48 310.73-15.2 310.55-14.88 310.38-14.55 310.3-14.1 310.23-13.65 310.23-13.1L310.23-13.1 310.23-7.6Q310.23-3.5 308.9-1.78 307.58-0.05 304.88-0.05L304.88-0.05Q302.08-0.05 300.78-1.63 299.48-3.2 299.48-7.2L299.48-7.2 299.38-28.5Q299.38-31.6 300.88-33.05 302.38-34.5 304.88-34.5L304.88-34.5Q307.53-34.5 308.88-33.4 310.23-32.3 310.23-28.95L310.23-28.95 310.23-21.7Q313.93-23.95 319.23-23.95L319.23-23.95Q321.63-23.95 323.08-22.73 324.53-21.5 325.23-18.85 325.93-16.2 325.93-11.9L325.93-11.9Q325.93-9.7 325.85-8.1 325.78-6.5 325.63-5.18 325.48-3.85 325.18-3 324.88-2.15 324.48-1.55 324.08-0.95 323.45-0.63 322.83-0.3 322.08-0.15 321.33 0 320.28 0L320.28 0Q317.48 0 316.25-1.03 315.03-2.05 315.03-4.15L315.03-4.15ZM344.27 0.3L344.27 0.3Q338.17 0.3 334.2-2.85 330.22-6 330.22-11.45L330.22-11.45Q330.22-17.35 334.15-20.78 338.07-24.2 344.27-24.2L344.27-24.2Q350.12-24.2 352.85-22.13 355.57-20.05 355.57-16.45L355.57-16.45Q355.57-15.75 355.4-15.1 355.22-14.45 354.85-13.83 354.47-13.2 353.85-12.68 353.22-12.15 352.42-11.73 351.62-11.3 350.52-11.08 349.42-10.85 348.17-10.85L348.17-10.85 341.12-10.8Q341.62-9.2 342.92-8.28 344.22-7.35 346.22-7.35L346.22-7.35Q348.37-7.35 350.62-7.9L350.62-7.9Q351.57-8.15 352.7-8.7 353.82-9.25 354.32-9.25L354.32-9.25Q355.17-9.25 355.65-8.75 356.12-8.25 356.12-7.5L356.12-7.5Q356.12-6.6 355.32-5.33 354.52-4.05 353.1-2.78 351.67-1.5 349.32-0.6 346.97 0.3 344.27 0.3ZM340.87-14L340.87-14Q344.32-14.05 344.62-14.05L344.62-14.05Q345.37-14.05 345.72-14.95L345.72-14.95Q345.97-15.6 345.97-16.75L345.97-16.75Q345.97-19.9 344.07-19.9L344.07-19.9Q343.37-19.9 342.7-19.15 342.02-18.4 341.52-17.03 341.02-15.65 340.87-14ZM371.02-15.4L371.02-5.35Q371.02-2.35 369.77-1.18 368.52 0 365.32 0L365.32 0Q362.37 0 361.32-1.38 360.27-2.75 360.27-5.9L360.27-5.9 360.27-18.2Q360.27-19.9 360.87-21.18 361.47-22.45 362.62-23.15 363.77-23.85 365.32-23.85L365.32-23.85Q369.12-23.85 370.32-21.65L370.32-21.65Q373.22-23.85 375.92-23.85L375.92-23.85Q381.17-23.85 381.17-18.85L381.17-18.85Q381.17-16.85 380.02-15.6 378.87-14.35 377.02-14.35L377.02-14.35Q375.92-14.35 375.25-14.8 374.57-15.25 374-15.7 373.42-16.15 372.67-16.15L372.67-16.15Q371.57-16.15 371.02-15.4L371.02-15.4ZM396.62 0.3L396.62 0.3Q390.52 0.3 386.54-2.85 382.57-6 382.57-11.45L382.57-11.45Q382.57-17.35 386.49-20.78 390.42-24.2 396.62-24.2L396.62-24.2Q402.47-24.2 405.19-22.13 407.92-20.05 407.92-16.45L407.92-16.45Q407.92-15.75 407.74-15.1 407.57-14.45 407.19-13.83 406.82-13.2 406.19-12.68 405.57-12.15 404.77-11.73 403.97-11.3 402.87-11.08 401.77-10.85 400.52-10.85L400.52-10.85 393.47-10.8Q393.97-9.2 395.27-8.28 396.57-7.35 398.57-7.35L398.57-7.35Q400.72-7.35 402.97-7.9L402.97-7.9Q403.92-8.15 405.04-8.7 406.17-9.25 406.67-9.25L406.67-9.25Q407.52-9.25 407.99-8.75 408.47-8.25 408.47-7.5L408.47-7.5Q408.47-6.6 407.67-5.33 406.87-4.05 405.44-2.78 404.02-1.5 401.67-0.6 399.32 0.3 396.62 0.3ZM393.22-14L393.22-14Q396.67-14.05 396.97-14.05L396.97-14.05Q397.72-14.05 398.07-14.95L398.07-14.95Q398.32-15.6 398.32-16.75L398.32-16.75Q398.32-19.9 396.42-19.9L396.42-19.9Q395.72-19.9 395.04-19.15 394.37-18.4 393.87-17.03 393.37-15.65 393.22-14Z" opacity="1" transform="matrix(1,0,0,1,0,0)" fill="#000000" class="undefined-text-1" data-fill-palette-color="secondary" id="text-1"></path></svg></g></svg></g></svg></g></svg></g><g transform="matrix(1,0,0,1,0,18.044790789741477)"><svg viewBox="0 0 244.43135999999998 122.51779831843523" height="122.51779831843523" width="244.43135999999998"><g><svg xmlns="http://www.w3.org/2000/svg" xmlns:xlink="http://www.w3.org/1999/xlink" xml:space="preserve" style="shape-rendering:geometricPrecision;text-rendering:geometricPrecision;image-rendering:optimizeQuality;" viewBox="0.0000020265579223632812 0.0000027120113372802734 14.727499008178711 7.38195276260376" x="0" y="0" fill-rule="evenodd" clip-rule="evenodd" width="244.43135999999998" height="122.51779831843523" class="icon-icon-0" data-fill-palette-color="accent" id="icon-0"><g fill="#f6f6f6" data-fill-palette-color="accent"><path class="" d="M1.757 3.091c-0.313 0.444-0.296 1.331-0.417 1.95-0.153 0.784-0.711 1.203-1.34 1.534 0.188-0.771 0.348-1.542 0.412-2.313 0.078-0.953-0.06-0.891 0.767-1.575 1.159-0.961 3.04-1.741 5.848-2.29 2.456-0.406 5.049-0.453 7.701-0.351-0.89 1.809-3.733 1.961-7.203 1.581-1.811 0.02-3.495-0.488-5.768 1.464z m8.33 2.781c-3.895 2.038-7.803-2.284-9.165 0.688 2.104-1.831 5.079 3.183 9.165-0.688z m2.489-2.547c-4.49 2.72-9.502-0.792-10.907 1.859 3.412-1.235 7.765 2.753 10.907-1.859z m0.834-1.478c-3.944 1.761-10.043-1.402-11.565 2.239 3.106-1.808 8.446 1.438 11.565-2.239z" fill="#000000" data-fill-palette-color="accent"></path></g></svg></g></svg></g></svg></g></svg><rect width="395.52" height="94.29111069374144" fill="none" stroke="none" visibility="hidden"></rect></g></svg></g></svg>